<mxfile host="Electron" agent="Mozilla/5.0 (Macintosh; Intel Mac OS X 10_15_7) AppleWebKit/537.36 (KHTML, like Gecko) draw.io/26.2.15 Chrome/134.0.6998.205 Electron/35.2.1 Safari/537.36" version="26.2.15">
  <diagram id="hq0ZFgXizS2Q_lVKa3BS" name="Page-1">
    <mxGraphModel dx="771" dy="493" grid="1" gridSize="10" guides="1" tooltips="1" connect="1" arrows="1" fold="1" page="1" pageScale="1" pageWidth="827" pageHeight="1169" background="none" math="0" shadow="1">
      <root>
        <mxCell id="0" />
        <mxCell id="1" parent="0" />
        <mxCell id="1mE678ZEqT67tjfLL2g0-8" value="&#xa;Used by" style="ellipse;fillColor=#f5f5f5;fontColor=#333333;strokeColor=#666666;sketch=1;curveFitting=1;jiggle=2;shadow=1;verticalAlign=top;fontSize=21;fontFamily=Verdana;" vertex="1" parent="1">
          <mxGeometry x="755" y="220" width="120" height="120" as="geometry" />
        </mxCell>
        <mxCell id="1mE678ZEqT67tjfLL2g0-1" value="&lt;div&gt;User-defined networks API&lt;/div&gt;" style="rounded=1;whiteSpace=wrap;html=1;fillColor=#f5f5f5;strokeColor=#666666;sketch=1;curveFitting=1;jiggle=2;fillStyle=cross-hatch;fontFamily=Verdana;fontColor=#333333;verticalAlign=middle;fontStyle=1;fontSize=21;" vertex="1" parent="1">
          <mxGeometry x="30" y="50" width="250" height="120" as="geometry" />
        </mxCell>
        <mxCell id="1mE678ZEqT67tjfLL2g0-2" value="" style="shape=flexArrow;endArrow=classic;html=1;rounded=1;exitX=1;exitY=0.5;exitDx=0;exitDy=0;width=14;endSize=9.33;shadow=1;sketch=1;curveFitting=1;jiggle=2;entryX=0;entryY=0.5;entryDx=0;entryDy=0;" edge="1" parent="1" source="1mE678ZEqT67tjfLL2g0-1" target="1mE678ZEqT67tjfLL2g0-3">
          <mxGeometry width="50" height="50" relative="1" as="geometry">
            <mxPoint x="370" y="240" as="sourcePoint" />
            <mxPoint x="420" y="110" as="targetPoint" />
          </mxGeometry>
        </mxCell>
        <mxCell id="1mE678ZEqT67tjfLL2g0-3" value="OVN-Kubernetes controller" style="rounded=1;whiteSpace=wrap;html=1;fillColor=#f5f5f5;strokeColor=#666666;sketch=1;curveFitting=1;jiggle=2;fillStyle=cross-hatch;fontFamily=Verdana;fontColor=#333333;verticalAlign=middle;fontStyle=1;fontSize=21;" vertex="1" parent="1">
          <mxGeometry x="360" y="50" width="250" height="120" as="geometry" />
        </mxCell>
        <mxCell id="1mE678ZEqT67tjfLL2g0-5" value="&lt;div&gt;Network attachment definition &lt;br&gt;&lt;span style=&quot;font-weight: normal;&quot;&gt;(net-attach-def)&lt;/span&gt;&lt;/div&gt;" style="rounded=1;whiteSpace=wrap;html=1;fillColor=#f5f5f5;strokeColor=#666666;sketch=1;curveFitting=1;jiggle=2;fillStyle=cross-hatch;fontFamily=Verdana;fontColor=#333333;verticalAlign=middle;fontStyle=1;fontSize=21;" vertex="1" parent="1">
          <mxGeometry x="690" y="50" width="250" height="120" as="geometry" />
        </mxCell>
        <mxCell id="1mE678ZEqT67tjfLL2g0-6" value="" style="shape=flexArrow;endArrow=classic;html=1;rounded=1;exitX=1;exitY=0.5;exitDx=0;exitDy=0;width=14;endSize=9.33;shadow=1;sketch=1;curveFitting=1;jiggle=2;entryX=0;entryY=0.5;entryDx=0;entryDy=0;" edge="1" parent="1" source="1mE678ZEqT67tjfLL2g0-3" target="1mE678ZEqT67tjfLL2g0-5">
          <mxGeometry width="50" height="50" relative="1" as="geometry">
            <mxPoint x="610" y="109.5" as="sourcePoint" />
            <mxPoint x="690" y="109.5" as="targetPoint" />
          </mxGeometry>
        </mxCell>
        <mxCell id="1mE678ZEqT67tjfLL2g0-7" value="" style="aspect=fixed;sketch=0;html=1;dashed=0;whitespace=wrap;verticalLabelPosition=bottom;verticalAlign=top;fillColor=#2875E2;strokeColor=#ffffff;points=[[0.005,0.63,0],[0.1,0.2,0],[0.9,0.2,0],[0.5,0,0],[0.995,0.63,0],[0.72,0.99,0],[0.5,1,0],[0.28,0.99,0]];shape=mxgraph.kubernetes.icon2;kubernetesLabel=1;prIcon=pod" vertex="1" parent="1">
          <mxGeometry x="790" y="280" width="50" height="48" as="geometry" />
        </mxCell>
        <mxCell id="1mE678ZEqT67tjfLL2g0-9" value="" style="shape=flexArrow;endArrow=classic;html=1;rounded=1;width=14;endSize=9.33;shadow=1;sketch=1;curveFitting=1;jiggle=2;entryX=0.5;entryY=0;entryDx=0;entryDy=0;" edge="1" parent="1" source="1mE678ZEqT67tjfLL2g0-5" target="1mE678ZEqT67tjfLL2g0-8">
          <mxGeometry width="50" height="50" relative="1" as="geometry">
            <mxPoint x="620" y="120" as="sourcePoint" />
            <mxPoint x="700" y="120" as="targetPoint" />
          </mxGeometry>
        </mxCell>
      </root>
    </mxGraphModel>
  </diagram>
</mxfile>
